<svg xmlns="http://www.w3.org/2000/svg" viewBox="0 0 2535 522"><title>asset_skyline</title><path d="M696,1V31.119c1.554.088,3.133-.1,4.882,0v4.793h5v4.9H701.2l-.228,5.046h9.919v5.06h15.06v5.06h9.88v4.878h-4.683v5.065h9.806v4.894h9.786v5.05h-4.628v5.06H731.2v10.06h4.629v4.88H731.2v5.064H721.044v24.89H716v20.052h-4.9v25.059h-4.9v70.057h4.641v24.862l5.059.259v29.82h5.059v24.889H726v25.053h4.9v10.06h4.9v25.118h5.038v-29.9H745.9V311.07H755.96v-4.889H766V266.129h9.9v-10.06h4.9V195.847h5.038v-9.7H790.9V131.211h35.058v4.607h5.031V275.845H840.9V251.074h15.059V216.016h34.882v-4.773H905.9v4.684h5.059v54.889H916v65.029h9.893V185.871H935.95v-4.883h4.883v-5.1h5.06v-5.021h5.06v-9.682h4.874v9.682h5.07v5.021h5.06v5.1h4.883v4.883H980.9v45.058h25.058v24.888h4.858v5.03H1020.9v-9.778h5.06v-5.06h4.883v-15.08h10.06V211.21h10.06v4.61h5.137v10.057h14.8v85h4.9v-24.66l5.041-.369V281.14l5.06-.238v-4.693h25.059v4.613h4.862l.295,5.058h4.787v22.059h24.9v27.85l5.043.36V355.88h25.016v10.06H1171.1v9.884h4.728l.285,5.03h9.8v-14.8h4.9V351.205l5.046-.349v-9.622h40.059v4.71h5.06v19.881h9.882V296.146h50.056v64.735h9.9V331.236c2.562-.479,5.018-.169,7.44-.224,2.476-.055,4.954-.012,7.6-.012v9.868l5.058.224v114.7h5.056V356.18h4.4c.261-.283.471-.4.472-.527.017-4.786.014-9.571.014-14.529h10.06v-5h5.06V341h4.884v9.767h5.06V336.207h15.06v9.616h9.862l.287,5.06h4.794v5.06h5.06V361h24.883v4.883h5.06v5.06h5.06v4.883h4.859c.1,1.732.183,3.311.28,5.06h4.8v35.059h4.893V420.8l5.05.334v9.754h5.06v15.06h5.06v4.883h9.862l.263,5.024h14.818v-4.815h4.891v-4.612a6.138,6.138,0,0,1,1.456-.415c4.474-.028,8.948-.017,13.6-.017v-4.9h10.06v-5.06h25.057V341.163h14.881V331.1h15.06v-5.06h4.89v-4.332c.3-.313.41-.537.524-.537,8.118-.016,16.235-.015,24.529-.015v9.74h20.06v5.06h10.233c0,33.469,0,66.586.014,99.7,0,.108.221.215.693.646V426.119l4.06-.213v-4.865h4.889v-4.614a6.15,6.15,0,0,1,1.459-.411c7.806-.023,15.613-.016,23.594-.016v-4.9h5.06v-5.06h5.06v-4.883h9.883V391.136h15.06v14.758h4.886v-9.72l5.057-.3v-4.654h5.06v4.585h9.825c.48,2.563.17,5.018.224,7.44.056,2.476.012,4.954.012,7.6h4.881v36.015h5.059V396.031h4.883V386l7.468,0h7.591v29.779h10.058V351.193h49.734c-.1-.086.045,0,.14.131a.783.783,0,0,1,.179.421c.008,22.975.008,45.951.008,69.09h9.876V401.094h5.06v-4.989h39.885v9.721l5.057.3v14.785h5.06v14.9h9.878c.1-1.346.207-2.915.331-4.658h4.617v-10.06h-4.558V411.1h24.617v29.647h5.059V411.089h25.058v-19.9h4.852l.352-5.046h4.739v-5.015h25.059v4.843h4.884v4.858l5.059.286v69.663h5.057v-64.59h14.808c.545-3.372.011-6.656.368-10.046h4.766v-5.014h10.06v19.844h9.883v14.858l5.06.285v4.8h5.06v9.894h9.88l.312-4.673h4.751V401.08h25.058V356.1h54.879v64.653h15.058V386.084h5.06v-4.9h14.88c.091,1.354.2,2.925.315,4.669h34.746v35.058h15.059v25.059h4.883v24.777h5.057V356.086h5.058v-4.9h4.854c.118-1.733.226-3.306.344-5.03h29.744v54.755h5.059v10.06h4.883v14.858l5.06.285v9.8h10.06v9.895h19.726c-.086.078.058-.016.15-.147a.8.8,0,0,0,.169-.425c.008-7.975.007-15.95.007-24.1h4.889v-5.06h5.06V386.021h9.883v-4.776h20.06v4.675h30v4.893h-4.233c-.3.441-.632.7-.632.952-.025,11.641-.022,23.281-.022,35.1h9.893v19.01h50.058V426.02h4.883v-9.883h10.06v-5.06h5.061v-4.892h14.88c.087,1.361.188,2.935.3,4.682h4.762v5.06h7.905v11.847l5.038.381v7.716h10.06v10.06h12.06V466H2536v57H1Q1,379.5,1,236H16.029v-5.059h5.06v-4.7h10.06V231c6.318,0,12.461-.008,18.6.018a5.748,5.748,0,0,1,1.44.44v3.6h4.9v60.79H70.931c.239-8.379-.154-16.631.22-24.675h39.881v4.616h4.836v-19.7l-4.7-.214V251h19.87v-5.06h5.06V241.15h9.783l.3,5.03h4.861v4.887H161.1V255.9l5.059.248V296c1.818,0,3.462.023,5.106-.007,1.591-.029,3.18-.112,4.541-.163v-39.9h-4.579V240.872h19.646l.288-4.691H214.04v4.888h26.822V255.9l-4.7.233v39.7c15.619.672,50.772.421,55.026-.421V165.936h4.9V146.15h4.783l.3,5.03h24.86v4.886H356.1V160.9l5.06.242v29.706l5.039.37V285.88h4.9V241.149h54.835c.247,8.379-.159,16.631.226,24.673h9.879V245.938h12.06v-10.06h10.06V228.15h5.042V216.129h7.9v-5.06h5.062v-4.888h14.881v4.888h5.06v5.06h10.06v10.1H511.2V271.07h24.9v9.777h5.085v-5.03h19.857V225.929h9.82V191.1h-4.694v-5.115h29.874v-4.863H616.1v5.008H626v30.052h5.044v4.891H636.1V361.129h10.057v19.919H651.2V355.929h4.9v-9.75H661V321.192h5.043V295.927H671.1v-29.82l5.059-.259V240.985H680.8V170.928h-4.9V145.868H671V125.816h-5.044v-24.89H655.8V95.862H651.17v-4.88H655.8V80.923H640.893v-5.06h-4.628v-5.05h9.786V65.919h9.806V60.854h-4.683V55.976h9.88v-5.06h15.06v-5.06h9.919L685.8,40.81h-4.688v-4.9h5V31.119H691V1ZM685.92,371.159H660.851v15.015H656.17V400.83H685.92Zm-10.08-70.064v20.1h-5v24.987h-4.65V350.9h19.659v-49.81Zm35.156.077H700.976v19.654h5.195v30.018h14.573v-5.02h-4.685l-.233-25.007H711ZM685.84,160.9V106.088h-9.677v29.733h5.009V160.9Zm15.313-54.816v54.657h5.009V135.821h4.669V106.088Zm14.869,294.739h14.815V385.821H726V371.172H711.087v9.85h4.935ZM681.175,266.1v29.83h4.651V266.1Zm19.991-.009v29.838h4.668V266.089Zm4.756,120.083h-4.77c0,4.941,0,9.71.014,14.48,0,.12.215.238.156.178h4.6Z" style="fill:#00002c"/></svg>