<svg xmlns="http://www.w3.org/2000/svg" width="2in" height="1in" viewBox="0 0 144 72"><title>Formidable</title><polygon points="40.6 31.71 46.58 31.71 46.58 28.72 37.45 28.72 37.45 42.89 40.63 42.89 40.63 37.59 45.86 37.59 45.86 34.71 40.6 34.71 40.6 31.71" style="fill:#fff"/><path d="M51.54,32.65a5.27,5.27,0,1,0,5.28,5.26A5.13,5.13,0,0,0,51.54,32.65Zm0,7.74a2.25,2.25,0,0,1-2.24-2.48,2.25,2.25,0,1,1,4.48,0A2.23,2.23,0,0,1,51.54,40.39Z" style="fill:#fff"/><path d="M60.73,34.29V33H57.79v9.93h3V38.55c0-2,1.1-2.7,2.32-2.7a4.12,4.12,0,0,1,1,.1V33a3,3,0,0,0-.8-0.1A2.81,2.81,0,0,0,60.73,34.29Z" style="fill:#fff"/><path d="M76.72,32.65a3.41,3.41,0,0,0-3.08,1.56,3.07,3.07,0,0,0-2.94-1.56,3.46,3.46,0,0,0-2.86,1.44V33h-2.9v9.93h3V37.17a1.61,1.61,0,0,1,1.64-1.72,1.51,1.51,0,0,1,1.6,1.68v5.76h3V37.15a1.61,1.61,0,0,1,1.66-1.7,1.51,1.51,0,0,1,1.58,1.68v5.76H80.4V36.45A3.48,3.48,0,0,0,76.72,32.65Z" style="fill:#fff"/><rect x="81.97" y="32.95" width="3.04" height="9.93" style="fill:#fff"/><path d="M83.47,28.14a1.78,1.78,0,1,0,1.8,1.78A1.78,1.78,0,0,0,83.47,28.14Z" style="fill:#fff"/><path d="M96.44,28.42h-3v5.32c-0.24-.38-1-1-2.68-1a4.85,4.85,0,0,0-4.82,5.18,4.92,4.92,0,0,0,4.92,5.22,3.21,3.21,0,0,0,2.66-1.18,6.9,6.9,0,0,0,.08,1h2.92c0-.22-0.08-0.88-0.08-1.78V28.42Zm-5.2,12A2.24,2.24,0,0,1,89,37.91a2.25,2.25,0,1,1,4.48,0A2.24,2.24,0,0,1,91.24,40.39Z" style="fill:#fff"/><path d="M106.44,36.49c0-2-1.18-3.84-4.4-3.84-2.92,0-4.24,1.88-4.36,3.3l2.64,0.54A1.6,1.6,0,0,1,102,35a1.23,1.23,0,0,1,1.46,1.08,0.68,0.68,0,0,1-.72.68l-2.34.36a3.05,3.05,0,0,0-2.94,3,3.48,3.48,0,0,0,6.24,1.62,4.77,4.77,0,0,0,.1,1.12h2.74a9.75,9.75,0,0,1-.12-1.54V36.49Zm-3,2.5a1.71,1.71,0,0,1-1.82,2,1,1,0,0,1-1.18-1,1.1,1.1,0,0,1,1.12-1.1l1.88-.3V39Z" style="fill:#fff"/><path d="M113.86,32.71A3.57,3.57,0,0,0,111,33.89V28.42h-3V42.89h2.94V41.77a3.2,3.2,0,0,0,2.8,1.34c2.78,0,4.74-2.18,4.74-5.22S116.74,32.71,113.86,32.71Zm-0.66,7.68a2.26,2.26,0,0,1-2.26-2.48,2.26,2.26,0,1,1,4.5,0A2.23,2.23,0,0,1,113.2,40.39Z" style="fill:#fff"/><rect x="119.45" y="28.42" width="3.04" height="14.47" style="fill:#fff"/><path d="M133.38,37.75c0-3.2-1.9-5.1-5-5.1a5,5,0,0,0-5,5.24,5.06,5.06,0,0,0,5.18,5.3A4.46,4.46,0,0,0,133.2,40l-2.54-.72a1.92,1.92,0,0,1-2,1.3,2.15,2.15,0,0,1-2.26-1.92h6.92A6.11,6.11,0,0,0,133.38,37.75Zm-6.92-1a1.89,1.89,0,0,1,2-1.68,1.78,1.78,0,0,1,2,1.68h-4Z" style="fill:#fff"/><polygon points="17 23 11.42 45.95 17 39.19 17 23" style="fill:#fff;opacity:0.15"/><polygon points="17 23 29.83 35 17 39.19 17 23" style="fill:#fff"/><polygon points="17 48.32 29.83 35 17 39.19 17 48.32" style="fill:#fff;opacity:0.7000000000000001"/><polygon points="11.42 45.95 17 39.19 17 48.32 11.42 45.95" style="fill:#fff;opacity:0.45"/></svg>
