<svg xmlns="http://www.w3.org/2000/svg" viewBox="0 0 717.145 203.009"><title>logo-appsheet</title><g style="isolation:isolate"><path d="M77.488,34.622h16.2l38.4,105.9h-15.6l-11.1-31.8h-41.4l-11.4,31.8h-14.7Zm23.7,62.4-16.2-46.8-16.8,46.8Z"/><path d="M142.288,63.722h12.6v10.2a30.331,30.331,0,0,1,8.4-8.1c4.5-3,9.6-4.2,15.3-4.2a28.968,28.968,0,0,1,22.2,9.9c6,6.6,9.3,16.2,9.3,28.8,0,16.8-4.5,28.8-13.2,36a30.357,30.357,0,0,1-19.5,6.9c-5.7,0-10.8-1.2-14.7-3.9-2.4-1.5-4.8-3.9-7.8-7.5v39.3h-12.6V63.722Zm48.6,60.3c3.9-5.1,6-12.6,6-22.8a43.054,43.054,0,0,0-2.7-15.9c-3.3-8.4-9.6-12.6-18.6-12.6s-15.3,4.5-18.6,13.5c-1.8,4.8-2.7,10.8-2.7,18.3a38.786,38.786,0,0,0,2.7,15.3c3.3,8.1,9.6,12,18.6,12A19.326,19.326,0,0,0,190.887,124.022Z"/><path d="M224.188,63.722h12.6v10.2a30.331,30.331,0,0,1,8.4-8.1c4.5-3,9.6-4.2,15.3-4.2a28.968,28.968,0,0,1,22.2,9.9c6,6.6,9.3,16.2,9.3,28.8,0,16.8-4.5,28.8-13.2,36a30.357,30.357,0,0,1-19.5,6.9c-5.7,0-10.8-1.2-14.7-3.9-2.4-1.5-4.8-3.9-7.8-7.5v39.3h-12.9V63.722Zm48.9,60.3c3.9-5.1,6-12.6,6-22.8a43.054,43.054,0,0,0-2.7-15.9c-3.3-8.4-9.6-12.6-18.6-12.6s-15.3,4.5-18.6,13.5c-1.8,4.8-2.7,10.8-2.7,18.3a38.786,38.786,0,0,0,2.7,15.3c3.3,8.1,9.6,12,18.6,12A20.244,20.244,0,0,0,273.088,124.022Z"/></g><g style="isolation:isolate"><path d="M318.387,106.322a30.352,30.352,0,0,0,4.2,14.7c4.5,6.9,12.6,10.5,24.3,10.5a42.1,42.1,0,0,0,14.1-2.4c8.1-3,12.3-8.4,12.3-15.9,0-5.7-1.8-9.9-5.1-12.3-3.6-2.4-9-4.5-16.5-6.3l-13.8-3.3c-9-2.1-15.6-4.5-19.2-6.9q-9.9-6.75-9.9-19.8c0-9.6,3.3-17.4,9.6-23.4s15.6-9,27.3-9c10.8,0,20.1,2.7,27.6,8.1s11.4,13.8,11.4,25.8h-13.5c-.6-5.7-2.1-9.9-4.5-12.9-4.2-5.4-11.4-8.4-21.3-8.4-8.1,0-13.8,1.8-17.4,5.4a17.111,17.111,0,0,0-5.4,12.3c0,5.1,2.1,9,6.3,11.4,2.7,1.5,9,3.6,18.6,5.7l14.4,3.3c6.9,1.5,12.3,3.9,15.9,6.6q9.9,7.2,9.9,21.6,0,17.55-12.6,25.2c-8.4,5.1-18,7.5-29.1,7.5-12.9,0-22.8-3.3-30-10.2q-10.8-9.9-10.8-27h13.2Z" style="fill:#3ebfea"/><path d="M405.688,34.322h12.9v39.6c3-3.9,5.7-6.6,8.4-8.1a28.083,28.083,0,0,1,15.6-4.2c11.1,0,18.9,3.9,22.8,11.7,2.1,4.2,3.3,10.2,3.3,17.7v49.5h-13.2v-48.6c0-5.7-.6-9.9-2.1-12.6-2.4-4.2-6.9-6.3-13.2-6.3a22.841,22.841,0,0,0-14.7,5.4c-4.5,3.6-6.6,10.8-6.6,21v40.8h-12.9V34.322Z" style="fill:#3ebfea"/><path d="M535.288,65.222a32.127,32.127,0,0,1,11.7,9.9,33.309,33.309,0,0,1,5.1,13.5c.9,3.6,1.2,9.3,1.2,17.1h-56.1q.45,11.7,5.4,18.9c3.3,4.8,8.7,7.2,15.9,7.2,6.6,0,12-2.1,16.2-6.6a26.11,26.11,0,0,0,4.8-9h12.6a30.424,30.424,0,0,1-3.3,9.6,26.8,26.8,0,0,1-6.3,8.4,30.67,30.67,0,0,1-14.4,7.8,37.435,37.435,0,0,1-10.5,1.2,32.456,32.456,0,0,1-24.3-10.5c-6.6-6.9-9.9-16.8-9.9-29.4,0-12.3,3.3-22.5,9.9-30.3s15.3-11.7,26.1-11.7A42.713,42.713,0,0,1,535.288,65.222Zm4.5,30.3q-.9-8.55-3.6-13.5c-3.6-6.3-9.3-9.3-17.7-9.3a20.166,20.166,0,0,0-15,6.3c-3.9,4.2-6,9.9-6.3,16.5Z" style="fill:#3ebfea"/><path d="M617.188,65.222a32.127,32.127,0,0,1,11.7,9.9,33.309,33.309,0,0,1,5.1,13.5c.9,3.6,1.2,9.3,1.2,17.1h-56.1q.45,11.7,5.4,18.9c3.3,4.8,8.7,7.2,15.9,7.2,6.6,0,12-2.1,16.2-6.6a26.11,26.11,0,0,0,4.8-9h12.6a30.424,30.424,0,0,1-3.3,9.6,26.8,26.8,0,0,1-6.3,8.4,30.67,30.67,0,0,1-14.4,7.8,37.435,37.435,0,0,1-10.5,1.2,32.456,32.456,0,0,1-24.3-10.5c-6.6-6.9-9.9-16.8-9.9-29.4,0-12.3,3.3-22.5,9.9-30.3s15.3-11.7,26.1-11.7A41.344,41.344,0,0,1,617.188,65.222Zm4.8,30.3q-.9-8.55-3.6-13.5c-3.6-6.3-9.3-9.3-17.7-9.3a20.166,20.166,0,0,0-15,6.3c-3.9,4.2-6,9.9-6.3,16.5Z" style="fill:#3ebfea"/><path d="M654.387,41.822h13.2v21.6h12.3v10.5h-12.6v50.4q0,4.05,2.7,5.4c.9.6,2.7.9,5.1.9h2.1a7.455,7.455,0,0,0,2.4-.3v10.2l-4.5.9a27.45,27.45,0,0,1-5.1.3c-6,0-10.2-1.5-12.3-4.5a21,21,0,0,1-3.3-12v-51h-10.5v-10.5h10.5v-21.9Z" style="fill:#3ebfea"/></g></svg>