<svg xmlns="http://www.w3.org/2000/svg" viewBox="0 0 500 150"><title>logo-godaddy</title><path d="M221.978,82.257c0,10.085-8.485,18.152-19.056,18.152s-19.056-8.068-19.056-18.152c0-10.154,8.485-18.361,19.056-18.361S221.978,72.1,221.978,82.257Zm-12.1-.07a6.955,6.955,0,1,0-6.955,7.024A7.006,7.006,0,0,0,209.877,82.188Z" style="fill:#111"/><path d="M273,74.885c0,14.536-10.154,24.481-24.481,24.481H227.79a1.722,1.722,0,0,1-1.739-1.739V52.352a1.708,1.708,0,0,1,1.739-1.669h20.725C262.842,50.682,273,60.35,273,74.885Zm-13.075,0c0-6.815-4.73-12.727-11.684-12.727H238.57V87.891h9.667C255.192,87.891,259.921,81.7,259.921,74.885Z" style="fill:#111"/><path d="M291.426,63.9c4.1,0,7.372,1.53,8.833,3.686V66.54a1.618,1.618,0,0,1,1.6-1.6h8.694a1.574,1.574,0,0,1,1.6,1.6V97.767a1.574,1.574,0,0,1-1.6,1.6h-8.694a1.574,1.574,0,0,1-1.6-1.6V96.723c-1.461,2.156-4.8,3.686-8.9,3.686-8.763,0-17.178-7.024-17.178-18.361S282.663,63.9,291.426,63.9Zm1.809,25.385a7.1,7.1,0,1,0-6.955-7.094A7.006,7.006,0,0,0,293.234,89.282Z" style="fill:#111"/><path d="M330.721,63.9c4.242,0,7.511,1.6,8.972,3.477V52.282a1.618,1.618,0,0,1,1.6-1.6h8.833a1.574,1.574,0,0,1,1.6,1.6V97.767a1.574,1.574,0,0,1-1.6,1.6h-8.694a1.574,1.574,0,0,1-1.6-1.6V96.723c-1.739,2.156-4.8,3.686-8.9,3.686-8.763,0-17.178-7.024-17.178-18.361S322.1,63.9,330.721,63.9Zm2.087,25.385a7.1,7.1,0,1,0-6.955-7.094A7.006,7.006,0,0,0,332.808,89.282Z" style="fill:#111"/><path d="M370.294,63.9c4.242,0,7.511,1.6,8.972,3.477V52.282a1.618,1.618,0,0,1,1.6-1.6H389.7a1.574,1.574,0,0,1,1.6,1.6V97.767a1.574,1.574,0,0,1-1.6,1.6H381a1.574,1.574,0,0,1-1.6-1.6V96.723c-1.739,2.156-4.8,3.686-8.9,3.686-8.763,0-17.178-7.024-17.178-18.361S361.67,63.9,370.294,63.9Zm2.087,25.385a7.1,7.1,0,1,0-6.955-7.094A7.006,7.006,0,0,0,372.381,89.282Z" style="fill:#111"/><path d="M420.369,104.373c-2.156,7.3-7.233,11.406-15.161,11.406a17.422,17.422,0,0,1-11.2-3.825,2.215,2.215,0,0,1-.7-1.461,2.747,2.747,0,0,1,.556-1.46l3.269-5.008a1.827,1.827,0,0,1,1.391-.765,2.7,2.7,0,0,1,1.809.7,7.46,7.46,0,0,0,4.034,1.53,3.7,3.7,0,0,0,3.756-2.643l1.113-3.477h-5.286a2.168,2.168,0,0,1-2.086-1.669l-8.833-30.045a6.046,6.046,0,0,1-.278-1.461c0-.7.487-1.252,1.461-1.252h10.432c.9,0,1.461.834,1.669,1.669l5.772,21.56h.418l4.66-21.56c.209-.835.765-1.669,1.669-1.669H429.41c.974,0,1.461.556,1.461,1.252a6.058,6.058,0,0,1-.278,1.461Z" style="fill:#111"/><path d="M171.486,92.62c-4.173,5.842-11.128,7.789-17.248,7.789-14.118,0-24.55-10.641-24.55-25.385,0-14.118,11.267-25.385,26.011-25.385,10.919,0,19.682,4.659,23.646,13.562.487,1.043.835,2.713-2.087,3.269l-7.72,1.391a3.007,3.007,0,0,1-3.13-1.322,12.8,12.8,0,0,0-10.432-5.286c-7.72,0-13.214,5.912-13.214,13.84,0,8.763,6.259,13.84,13.005,13.84A12.964,12.964,0,0,0,166.479,84h-6.816a1.722,1.722,0,0,1-1.739-1.739V75.72a1.722,1.722,0,0,1,1.739-1.739h20.795A1.722,1.722,0,0,1,182.2,75.72V97.627a1.722,1.722,0,0,1-1.739,1.739h-7.233a1.722,1.722,0,0,1-1.739-1.739Z" style="fill:#111"/><path d="M92.081,20.008a2.846,2.846,0,0,1-.029-.433c-.043-2.143,1.991-4.489,2.055-6.872l.012-.01v-.055a.967.967,0,0,0-.609-.827,2.509,2.509,0,0,0-1.04-.192,3.247,3.247,0,0,0-2.709,1.3c-1,2.1-2.6,4.3-2.615,6.578a3.969,3.969,0,0,0,.6,2.141c.879,1.94,2.068,3.679,2.986,5.76a2.61,2.61,0,0,1,.234,1.036,2.65,2.65,0,0,1-.775,1.758c-.151.206-1.154.163-1.665,1l-.024.051-.008.06a1.448,1.448,0,0,0-.034.313,1.928,1.928,0,0,0,1.419,1.7,3.423,3.423,0,0,0,1.241.229,4.29,4.29,0,0,0,3.516-2.051,4.9,4.9,0,0,0,.717-2.541c-.053-3.237-2.927-6.071-3.273-8.945" style="fill:#ef6c0f"/><path d="M103.892,23.948a27.428,27.428,0,0,1-2.814-4.554,4.176,4.176,0,0,1-.616-1.824,2.609,2.609,0,0,1,1.035-1.952,2.288,2.288,0,0,0,.64-1.732,2.832,2.832,0,0,0-.913-2.183,3.059,3.059,0,0,0-1.691-.621c-1.106.01-1.811.868-2.317,1.878a26.021,26.021,0,0,0-1.308,3.569,5.043,5.043,0,0,0-.232,1.484c.057,3.7,4.017,6.574,4.886,10a3.662,3.662,0,0,1,.15,1.019,7.684,7.684,0,0,1-.623,2.574,2.214,2.214,0,0,0-.149.76,1.809,1.809,0,0,0,1.918,1.719h.011A1.988,1.988,0,0,0,103.3,33.5c1.869-1.93,2.583-3.564,2.583-5.02,0-1.848-1.1-3.245-2-4.534" style="fill:#ef6c0f"/><path d="M71.319,23.628a5.009,5.009,0,0,1-.431-2.259c0-1.108.192-2.312.192-3.463a5.522,5.522,0,0,0-.269-1.885,1.056,1.056,0,0,0-1.058-.609,3.309,3.309,0,0,0-2.982,2.2,48.689,48.689,0,0,0-.608,4.988,5.108,5.108,0,0,0,1.586,3.9c1.792,1.71,3.686,3.062,4.749,4.563a2.886,2.886,0,0,1,.688,1.625,3.033,3.033,0,0,1-.262,1.158,8.688,8.688,0,0,0-1.172,2.39l-.01.058.01.061a.8.8,0,0,0,.7.75c.021,0,.04-.006.066-.006.408-.021.7-.167,1.042-.167a.171.171,0,0,1,.056,0h.2a3.978,3.978,0,0,0,3.75-3.177,4.822,4.822,0,0,0,.1-1.012c-.077-4.11-4.871-6.056-6.345-9.111" style="fill:#ef6c0f"/><path d="M83.345,22.853c-1.524-2.528-3.621-4.808-3.842-7.286.006-.008.006-.028.091-.073a15.646,15.646,0,0,1,2.052-.657,6.377,6.377,0,0,0,1.51-.654c.482-.312.986-.629,1.025-1.289a.967.967,0,0,0-.435-.773,5.071,5.071,0,0,0-2.612-.693c-2.7.008-5.543,1.817-6.235,4.405a5.3,5.3,0,0,0-.153,1.2c.071,3.843,4.377,6.543,5.473,10l.009.021a3.718,3.718,0,0,1,.214,1.223,8.761,8.761,0,0,1-.47,2.39,1.53,1.53,0,0,0-.089.549,1.225,1.225,0,0,0,.6,1.091,2.2,2.2,0,0,0,1.173.3,3.078,3.078,0,0,0,2.208-.864,5.738,5.738,0,0,0,1.258-3.611,10.48,10.48,0,0,0-1.774-5.283" style="fill:#ef6c0f"/><path d="M113.018,89.859c-.05,0-.115-.005-.167-.009" style="fill:#22201f"/><path d="M124.152,54.206a15,15,0,0,0-6.827-1.482c-.033,0-.063,0-.1,0-2.426-6.079-5.5-10.612-9.159-13.479a27.929,27.929,0,0,0-17.348-5.527,40.86,40.86,0,0,0-10.18,1.393c-.246-.648-.485-1.3-.775-1.9a.634.634,0,0,0-.953-.192,1.455,1.455,0,0,0-.4,1.371,5.124,5.124,0,0,1,.067,1.311,47.207,47.207,0,0,0-5.65,2.108l-.952.445a.719.719,0,0,0-.4.817l1.2,5.056c-.522.47-1.041.962-1.6,1.381-.5.363-.564,1.436-.146,1.559a10.574,10.574,0,0,0,2.515.32l1.238,5.227c-.019.047-.033.1-.053.146-.14.346-.354.7-.473.978-.289.642.27,1.385.6,1.192.142-.086.264-.2.4-.293l1.36,5.739a10.689,10.689,0,0,0-2.573,2.465,6.7,6.7,0,0,0-1.227,3.96,5.318,5.318,0,0,0,.439,2.23c.013.031.046.056.061.086a7.618,7.618,0,0,0-.469,2.7c0,.362.023.738.053,1.121a5.665,5.665,0,0,0,3.032,4.51,11.467,11.467,0,0,0,5.034,1.287l5.552,23.428a.721.721,0,0,0,.7.554.741.741,0,0,0,.347-.087l1.466-.8a71.249,71.249,0,0,0,6.315-3.944,4.958,4.958,0,0,1,3.051-.965,14.02,14.02,0,0,1,3.358.628,22.2,22.2,0,0,0,5.687.949,12.751,12.751,0,0,0,2.781-.309,7.761,7.761,0,0,0,5.321-3.871,9.363,9.363,0,0,0,1.024-4.347c0-.45-.034-.794-.053-1.013-.051-2.3-1.264-4.717-2.436-7.061l-.375-.753c-2.014-3.878-2.4-5.318-2.377-5.853,0-.055,0-.1-.008-.108a18,18,0,0,1,4.586-1.566c1.069-.265,2.088-.528,2.923-.8a6.369,6.369,0,0,0,1.212-.53,2.774,2.774,0,0,0,.747-.585,2.339,2.339,0,0,0,.592-1.532,38.242,38.242,0,0,0-.8-6.3,13.348,13.348,0,0,0,3.665-1.18c1.777-.926,3.163-2.356,3.192-4.246-.029-1.9-1.414-3.31-3.192-4.245M74.859,66.734a4.649,4.649,0,0,1,.782-2.6,10.992,10.992,0,0,1,1.42-1.5l.526,2.219a10.792,10.792,0,0,0-2.727,1.876" style="fill:#111"/><path d="M77.612,52.509c.434-.526.889-1.114,1.392-1.795l.113-.15c.47-.623,1-1.328,1.533-1.328a.494.494,0,0,1,.053,0,8.189,8.189,0,0,1,3.869,1.78c.341.235.695.48,1.074.724.233.152.464.326.687.493a3.8,3.8,0,0,0,2.159,1.012h0a1.957,1.957,0,0,0,.327-.028h0c.246,0,.388-.265.538-.545a2.591,2.591,0,0,1,.256-.415l.013-.016.008-.018a.856.856,0,0,0-.158-.781c-.021-.035-.039-.065-.052-.091-.111-.225-.21-.434-.3-.634a9.725,9.725,0,0,0-1.166-2.008c-.631-.817-1.225-1.621-1.8-2.4-.326-.441-.653-.884-.99-1.334a7.771,7.771,0,0,1,2.466-1.17c.405-.136.824-.276,1.235-.452a1.168,1.168,0,0,0,.482-1.248,1.04,1.04,0,0,0-.462-.645l-.031-.02-.037,0a9.31,9.31,0,0,1-2.829-.733,7.2,7.2,0,0,0-1.5-.128,4.844,4.844,0,0,1-2-.312c-.308-.149-.417-.654-.513-1.1-.026-.123-.052-.242-.08-.35-.065-.24-.137-.471-.21-.7q-.049-.155-.1-.31A37.806,37.806,0,0,1,90.72,36.6,25.022,25.022,0,0,1,106.3,41.524c3.024,2.349,5.662,6.157,7.842,11.319a13.1,13.1,0,0,0-3.689,1.116,6.011,6.011,0,0,0-2.76,2.542,5.211,5.211,0,0,0-.551-.038,8.239,8.239,0,0,0-1.448.168c-.847-3.612-4.616-6.223-9.028-6.23-4.709.007-8.6,2.959-9.122,6.887a25.513,25.513,0,0,0-8.423,1.584Z" style="fill:#fff"/><path d="M74.68,40.129c.968-.42,1.95-.782,2.883-1.11-.125.395-.242.774-.341,1.153a1.835,1.835,0,0,1-.449.458l-.18.152v.383A14.617,14.617,0,0,1,75.17,42.2Z" style="fill:#fff"/><path d="M79.682,61.249a23.856,23.856,0,0,1,7.974-1.535c.891,3.548,4.654,6.117,9.007,6.128,4.613-.011,8.506-2.905,9.107-6.749h0a6.826,6.826,0,0,1,1.365-.191l.086,0a5.277,5.277,0,0,0,3.231,4.047,15.656,15.656,0,0,0,6.873,1.377c.082,0,.161-.005.24-.011l.055,0a38.617,38.617,0,0,1,.773,5.554,23.077,23.077,0,0,1-2.947.885l-.046.012c-2.315.6-4.929,1.272-6.157,2.342-2.027,1.784-.19,5.4,1.754,9.225a36.075,36.075,0,0,1,2.161,4.821c-4.27-.631-7.108-1.732-9.485-3.678-2.289-1.869-4.167-4.579-6.34-7.716a1.428,1.428,0,0,0-1.987-.358,1.42,1.42,0,0,0-.36,1.986l.133.192c2.218,3.2,4.134,5.966,6.743,8.119,2.809,2.3,6.293,3.67,10.967,4.3.306.042.548.071.781.1a5.03,5.03,0,0,1-4.1,5.295,9.257,9.257,0,0,1-2.026.214,19.444,19.444,0,0,1-4.889-.792,17.319,17.319,0,0,0-4.4-.766,7.769,7.769,0,0,0-4.641,1.528c-.83.571-2.721,1.873-4.982,3.176Z" style="fill:#fff"/><path d="M80.154,76.357a8.06,8.06,0,0,1-3.168-.937,3.275,3.275,0,0,1-1.871-2.682c-.029-.381-.043-.673-.043-.918a4.347,4.347,0,0,1,1.057-3.141A7.333,7.333,0,0,1,78,67.248Z" style="fill:#fff"/><path d="M117.314,61.907a13.532,13.532,0,0,1-5.775-1.133c-1.3-.662-1.954-1.444-1.954-2.323s.658-1.651,1.955-2.316a11.5,11.5,0,0,1,3.638-.985,16.819,16.819,0,0,1,2.113-.143h.042c.145,0,.285.01.425.02.089.006.179.013.27.017a12.658,12.658,0,0,1,5.067,1.187c1.48.772,1.986,1.65,1.965,2.216.02.574-.485,1.452-1.966,2.229a11.255,11.255,0,0,1-3.079.976,14.845,14.845,0,0,1-2.689.258Z" style="fill:#02c54c"/><path d="M96.663,63.4a7.906,7.906,0,0,1-4.9-1.624,4.494,4.494,0,0,1,0-7.321,8.205,8.205,0,0,1,9.8,0,4.484,4.484,0,0,1,0,7.32,7.8,7.8,0,0,1-4.9,1.624" style="fill:#02c54c"/><path d="M76.424,51.4c.2-.727.329-1.431.432-2.024.046-.261.089-.523.134-.791.056-.333.112-.675.176-1.031a3.179,3.179,0,0,1,.3-.7c.086-.167.176-.34.254-.534a1.225,1.225,0,0,0-.077-1.167l-.012-.016-.016-.013a.827.827,0,0,0-.531-.174,1.9,1.9,0,0,0-.886.278.861.861,0,0,1-.23.056,1.541,1.541,0,0,0-.224.048,4.152,4.152,0,0,1-2.222.09,2.425,2.425,0,0,1,.762-.553c.128-.069.251-.136.363-.21.292-.146.59-.3.884-.471a4.52,4.52,0,0,0,.786-.567.914.914,0,0,1,.261-.128.658.658,0,0,0,.383-.261c.088-.1.183-.186.279-.276a3.149,3.149,0,0,0,.746-.935,10.214,10.214,0,0,0,1.108-3.091c.044-.182.088-.364.134-.546.1-.4.213-.819.358-1.233.134.285.263.6.4.961.232.63.424,1.273.626,1.955.236.795.48,1.617.8,2.419a.274.274,0,0,0,.293.2,1.139,1.139,0,0,0,.114-.008.882.882,0,0,1,.1-.007.1.1,0,0,1,.118.079l.077.192.161-.129a1.867,1.867,0,0,1,1.232-.363c.152,0,.306.007.458.015s.315.015.47.015c.084,0,.173-.007.265-.015s.182-.015.276-.015a.8.8,0,0,1,.576.2c-.215.112-.427.229-.638.345a10.049,10.049,0,0,1-1.763.832l-.022.007-.019.013a1.473,1.473,0,0,0-.519.9.912.912,0,0,0,.14.688,1.1,1.1,0,0,0,.466.493,1.252,1.252,0,0,1,.286.237,20.483,20.483,0,0,1,3.2,4.058.157.157,0,0,1-.034,0c-.13,0-.283-.159-.431-.313l-.1-.1A13.7,13.7,0,0,0,84,48.437a12.571,12.571,0,0,1-2.349-1.573.934.934,0,0,0-.62-.263c-.552,0-1.01.565-1.493,1.164a6.355,6.355,0,0,1-.754.833,11.656,11.656,0,0,0-1.5,1.709c-.114.148-.228.3-.343.443-.053.068-.105.136-.158.206-.119.157-.234.307-.357.445Z" style="fill:#fddd2e"/><path d="M430.9,56.417a.168.168,0,0,1,.17-.177h4.257a.168.168,0,0,1,.169.177v.669a.161.161,0,0,1-.169.169h-1.555v4.2a.179.179,0,0,1-.177.177h-.8a.173.173,0,0,1-.17-.177v-4.2h-1.555a.161.161,0,0,1-.17-.169Z" style="fill:#111"/><path d="M438.951,59.087l1.193-2.694a.247.247,0,0,1,.246-.154h1.278a.166.166,0,0,1,.17.169v5.05a.16.16,0,0,1-.162.169h-.762a.162.162,0,0,1-.169-.169v-3.81L439.5,60.419a.235.235,0,0,1-.254.169h-.616a.232.232,0,0,1-.246-.169l-1.247-2.771v3.81a.165.165,0,0,1-.162.169h-.77a.16.16,0,0,1-.162-.169v-5.05a.166.166,0,0,1,.17-.169h1.309a.241.241,0,0,1,.246.154Z" style="fill:#111"/></svg>