<svg xmlns="http://www.w3.org/2000/svg" viewBox="0 0 376.013 89.583"><title>logo-alexa</title><path d="M46.169,21.754A23.037,23.037,0,1,0,69.206,44.791,23.073,23.073,0,0,0,46.169,21.754ZM42.557,67.539V62.971a4.047,4.047,0,0,0-2.5-3.711A15.709,15.709,0,1,1,61.878,44.791C61.878,54.965,54.009,64.585,42.557,67.539Z" style="fill:#00caff"/><path d="M94.2,34.79q8.287,0,8.286,7.138V58.884a.635.635,0,0,1-.718.719h-1.006a.684.684,0,0,1-.767-.719l-.191-2.059a13.609,13.609,0,0,1-8.622,3.306,7.187,7.187,0,0,1-5.245-1.893A6.733,6.733,0,0,1,84,53.184a6.843,6.843,0,0,1,2.371-5.508,9.791,9.791,0,0,1,6.539-2.012,21.639,21.639,0,0,1,3.352.287,24.255,24.255,0,0,1,3.5.814V42.742q0-2.922-1.39-4.191t-4.6-1.27a22.554,22.554,0,0,0-6.274.958q-.527.144-.838.264a1.489,1.489,0,0,1-.5.119q-.576,0-.575-.622v-.767a.93.93,0,0,1,.623-.958,20.894,20.894,0,0,1,3.9-1.1A22.586,22.586,0,0,1,94.2,34.79Zm-.671,13.173q-6.706,0-6.706,5.173,0,4.5,4.742,4.5A12.209,12.209,0,0,0,95.5,56.92a19.5,19.5,0,0,0,4.264-2.107V48.825A24.324,24.324,0,0,0,93.531,47.963Z" style="fill:#333e48"/><path d="M136.594,34.79a6.554,6.554,0,0,1,5.029,1.845,7.689,7.689,0,0,1,1.725,5.437V58.884a.635.635,0,0,1-.719.719h-1.294a.635.635,0,0,1-.718-.719V43.221a7.508,7.508,0,0,0-1.078-4.551,4.182,4.182,0,0,0-3.52-1.389,14.306,14.306,0,0,0-8.67,3.018,18.172,18.172,0,0,1,.144,2.251V58.884a.635.635,0,0,1-.719.719H125.48a.635.635,0,0,1-.719-.719V43.221a7.516,7.516,0,0,0-1.077-4.551,4.184,4.184,0,0,0-3.52-1.389,14.411,14.411,0,0,0-8.526,2.922v18.68a.635.635,0,0,1-.719.719h-1.293a.635.635,0,0,1-.719-.719V36.228a.635.635,0,0,1,.719-.719h.958a.738.738,0,0,1,.813.719l.192,1.916a18.879,18.879,0,0,1,4.5-2.467,13.088,13.088,0,0,1,4.646-.887q4.5,0,6.035,3.688a17.657,17.657,0,0,1,4.814-2.754A14.288,14.288,0,0,1,136.594,34.79Z" style="fill:#333e48"/><path d="M158.435,34.79q8.287,0,8.286,7.138V58.884A.635.635,0,0,1,166,59.6H165a.684.684,0,0,1-.767-.719l-.191-2.059a13.61,13.61,0,0,1-8.622,3.306,7.187,7.187,0,0,1-5.245-1.893,6.733,6.733,0,0,1-1.94-5.054,6.843,6.843,0,0,1,2.371-5.508,9.791,9.791,0,0,1,6.539-2.012,21.641,21.641,0,0,1,3.353.287,24.257,24.257,0,0,1,3.5.814V42.742q0-2.922-1.39-4.191t-4.6-1.27a22.554,22.554,0,0,0-6.274.958q-.527.144-.838.264a1.489,1.489,0,0,1-.5.119q-.576,0-.575-.622v-.767a.93.93,0,0,1,.623-.958,20.9,20.9,0,0,1,3.9-1.1A22.586,22.586,0,0,1,158.435,34.79Zm-.671,13.173q-6.706,0-6.706,5.173,0,4.5,4.742,4.5a12.211,12.211,0,0,0,3.928-.719,19.506,19.506,0,0,0,4.264-2.107V48.825A24.324,24.324,0,0,0,157.764,47.963Z" style="fill:#333e48"/><path d="M189.618,57.926v.958a.635.635,0,0,1-.719.719h-16.86a.635.635,0,0,1-.719-.719V57.878a2.03,2.03,0,0,1,.12-.767,2.573,2.573,0,0,1,.455-.67L186.457,37.9H172.517a.636.636,0,0,1-.719-.719v-.958a.635.635,0,0,1,.719-.719H188.8a.635.635,0,0,1,.719.719v1.006a2.139,2.139,0,0,1-.12.719,2.482,2.482,0,0,1-.5.766L174.29,57.208H188.9A.635.635,0,0,1,189.618,57.926Z" style="fill:#333e48"/><path d="M203.7,60.321a10.338,10.338,0,0,1-8.167-3.329q-2.946-3.33-2.945-9.46t2.945-9.436a11.741,11.741,0,0,1,16.334,0q2.946,3.3,2.946,9.436t-2.946,9.46A10.338,10.338,0,0,1,203.7,60.321Zm0-2.491q8.287,0,8.287-10.3,0-10.251-8.287-10.251t-8.286,10.251Q195.414,57.83,203.7,57.83Z" style="fill:#333e48"/><path d="M232.727,34.79a7.222,7.222,0,0,1,5.365,1.845,7.432,7.432,0,0,1,1.819,5.437V58.884a.635.635,0,0,1-.718.719H237.9a.635.635,0,0,1-.718-.719V43.221q0-3.161-1.2-4.551a4.8,4.8,0,0,0-3.832-1.389,14.793,14.793,0,0,0-4.838.79,19.291,19.291,0,0,0-4.5,2.275V58.884a.635.635,0,0,1-.719.719H220.8a.635.635,0,0,1-.719-.719V36.228a.635.635,0,0,1,.719-.719h.958a.738.738,0,0,1,.813.719l.192,2.06A18.945,18.945,0,0,1,227.65,35.7,15.236,15.236,0,0,1,232.727,34.79Z" style="fill:#333e48"/><path d="M266.592,34.79q8.287,0,8.286,7.138V58.884a.635.635,0,0,1-.718.719h-1.006a.684.684,0,0,1-.767-.719l-.191-2.059a13.609,13.609,0,0,1-8.622,3.306,7.187,7.187,0,0,1-5.245-1.893,6.733,6.733,0,0,1-1.94-5.054,6.843,6.843,0,0,1,2.371-5.508,9.791,9.791,0,0,1,6.539-2.012,21.639,21.639,0,0,1,3.352.287,24.255,24.255,0,0,1,3.5.814V42.742q0-2.922-1.39-4.191t-4.6-1.27a22.554,22.554,0,0,0-6.274.958q-.527.144-.838.264a1.489,1.489,0,0,1-.5.119q-.576,0-.575-.622v-.767a.93.93,0,0,1,.623-.958,20.894,20.894,0,0,1,3.9-1.1A22.586,22.586,0,0,1,266.592,34.79Zm-.671,13.173q-6.706,0-6.706,5.173,0,4.5,4.742,4.5a12.209,12.209,0,0,0,3.928-.719,19.5,19.5,0,0,0,4.264-2.107V48.825A24.324,24.324,0,0,0,265.921,47.963Z" style="fill:#333e48"/><path d="M281.2,24.875a.635.635,0,0,1,.719-.718h1.293a.635.635,0,0,1,.719.718v30.56a2.139,2.139,0,0,0,.407,1.484,1.966,1.966,0,0,0,1.461.432,4.89,4.89,0,0,0,.647-.048,4.6,4.6,0,0,1,.6-.048.593.593,0,0,1,.671.67v.91a.694.694,0,0,1-.623.719,3.914,3.914,0,0,1-.838.144c-.368.031-.7.048-.982.048a3.948,3.948,0,0,1-2.994-1.126,4.351,4.351,0,0,1-1.077-3.137Z" style="fill:#333e48"/><path d="M307.685,57.016q.623-.19.91-.311a1.394,1.394,0,0,1,.527-.119q.574,0,.574.623v.67a.988.988,0,0,1-.526,1.006,18.869,18.869,0,0,1-7.329,1.438q-5.508,0-8.406-3.185t-2.9-9.316a17.963,17.963,0,0,1,.766-5.436,11.61,11.61,0,0,1,2.228-4.12,9.483,9.483,0,0,1,3.568-2.586,12.13,12.13,0,0,1,4.742-.887,9.732,9.732,0,0,1,6.443,1.916,6.632,6.632,0,0,1,2.275,5.365,5.581,5.581,0,0,1-2.419,5.006q-2.419,1.6-7.5,1.6a31.541,31.541,0,0,1-3.664-.216,22.547,22.547,0,0,1-3.665-.742q0,5.172,2.18,7.64t6.538,2.467A20.293,20.293,0,0,0,307.685,57.016ZM301.6,37.234a7.618,7.618,0,0,0-5.676,2.107,10,10,0,0,0-2.515,6.179,30.731,30.731,0,0,0,3.712.719,28.688,28.688,0,0,0,3.712.239,10.178,10.178,0,0,0,5.269-1.054,3.667,3.667,0,0,0,1.676-3.353Q307.781,37.233,301.6,37.234Z" style="fill:#333e48"/><path d="M323.505,48.969,316.56,59.075a1.185,1.185,0,0,1-1.006.527h-1.341c-.416,0-.623-.175-.623-.527a1.307,1.307,0,0,1,.335-.622l8.191-11.4-7.473-10.442a1.48,1.48,0,0,1-.287-.574q0-.527.622-.527h1.485a1.188,1.188,0,0,1,1.006.527l6.275,8.909,6.274-8.909a1.146,1.146,0,0,1,.958-.527h1.293q.622,0,.623.527a1.4,1.4,0,0,1-.287.622l-7.377,10.2,8.191,11.592a1.4,1.4,0,0,1,.287.622c0,.353-.208.527-.623.527H331.6a1.142,1.142,0,0,1-.958-.527Z" style="fill:#333e48"/><path d="M346.363,34.79q8.287,0,8.286,7.138V58.884a.635.635,0,0,1-.718.719h-1.006a.684.684,0,0,1-.767-.719l-.191-2.059a13.609,13.609,0,0,1-8.622,3.306,7.187,7.187,0,0,1-5.245-1.893,6.733,6.733,0,0,1-1.94-5.054,6.843,6.843,0,0,1,2.371-5.508,9.791,9.791,0,0,1,6.539-2.012,21.639,21.639,0,0,1,3.352.287,24.255,24.255,0,0,1,3.5.814V42.742q0-2.922-1.39-4.191t-4.6-1.27a22.554,22.554,0,0,0-6.274.958q-.527.144-.838.264a1.489,1.489,0,0,1-.5.119q-.576,0-.575-.622v-.767a.93.93,0,0,1,.623-.958,20.894,20.894,0,0,1,3.9-1.1A22.586,22.586,0,0,1,346.363,34.79Zm-.671,13.173q-6.706,0-6.706,5.173,0,4.5,4.742,4.5a12.209,12.209,0,0,0,3.928-.719,19.5,19.5,0,0,0,4.264-2.107V48.825A24.324,24.324,0,0,0,345.692,47.963Z" style="fill:#333e48"/></svg>