<svg xmlns="http://www.w3.org/2000/svg" viewBox="0 0 237.805 96.176"><title>logo-galvanize</title><path d="M34.138,52.84c2.481,0,4.1-1.039,4.37-5.877H29.724C30.009,51.785,31.7,52.84,34.138,52.84Z" style="fill:#a7a9ac"/><path d="M33.087,44.664a1.839,1.839,0,1,0-2.788-.223l-.4.809.809-.4A1.837,1.837,0,0,0,33.087,44.664Z" style="fill:#a7a9ac"/><path d="M28.7,39.549a1.293,1.293,0,1,0-.158,1.961l.567.283-.279-.572A1.29,1.29,0,0,0,28.7,39.549Z" style="fill:#a7a9ac"/><path d="M31.051,36.781a.826.826,0,1,0-1.254-.1l-.179.361.364-.176A.826.826,0,0,0,31.051,36.781Z" style="fill:#a7a9ac"/><path d="M40.083,33.74v2.8A8.412,8.412,0,0,0,38.3,34.8l-2.062,2.063c3.268,1.08,3.8,4.822,3.8,8.572,0,4.443-.726,8.889-5.9,8.889S28.2,49.875,28.2,45.432c0-.18,0-.358.006-.539L24.837,48.26c.259,2.781,1,5.295,2.777,7.074a8.175,8.175,0,0,0,5.751,2.127,7.659,7.659,0,0,0,6.669-3.092V58.09c0,4.059-1.934,7.293-6.523,7.293-2.755,0-3.96-.818-5.7-2.365l-2.268,2.221a10.489,10.489,0,0,0,8.066,3.189c6.232,0,9.9-4.3,9.9-10.193V33.74Z" style="fill:#f7901e"/><path d="M65.542,57.545V55.287c-1.92,1.922-3.648,2.545-6.816,2.545-3.264,0-5.184-.623-6.672-2.16a6.8,6.8,0,0,1-1.775-4.8c0-4.127,2.879-6.816,8.16-6.816h7.1V41.8c0-3.457-1.726-5.184-6.049-5.184-3.023,0-4.559.719-5.951,2.688l-2.353-2.16c2.113-2.736,4.514-3.5,8.353-3.5,6.336,0,9.457,2.734,9.457,7.871V57.545Zm0-10.9H58.919c-3.553,0-5.281,1.441-5.281,4.176s1.68,4.033,5.424,4.033c2.018,0,3.793-.143,5.281-1.584.816-.768,1.2-2.113,1.2-4.08Z" style="fill:#f7901e"/><path d="M82.862,57.545c-4.129,0-6-2.689-6-6.289V23.365h3.457V51.111c0,2.3.768,3.457,3.168,3.457h1.871v2.977Z" style="fill:#f7901e"/><path d="M99.815,57.545h-3.07L88.1,33.926h3.742L98.28,52.889l6.48-18.963h3.746Z" style="fill:#f7901e"/><path d="M126.766,57.545V55.287c-1.922,1.922-3.648,2.545-6.817,2.545-3.264,0-5.184-.623-6.672-2.16a6.8,6.8,0,0,1-1.777-4.8c0-4.127,2.881-6.816,8.162-6.816h7.1V41.8c0-3.457-1.727-5.184-6.05-5.184-3.023,0-4.559.719-5.951,2.688l-2.353-2.16c2.113-2.736,4.514-3.5,8.353-3.5,6.337,0,9.458,2.734,9.458,7.871V57.545Zm0-10.9h-6.624c-3.553,0-5.281,1.441-5.281,4.176s1.68,4.033,5.424,4.033c2.017,0,3.794-.143,5.282-1.584.816-.768,1.2-2.113,1.2-4.08Z" style="fill:#f7901e"/><path d="M152.738,57.545V43c0-4.176-2.258-6.289-5.809-6.289s-5.855,2.16-5.855,6.289V57.545h-3.457V33.926h3.457v2.592a8.512,8.512,0,0,1,6.621-2.879,8.283,8.283,0,0,1,6.051,2.207,8.73,8.73,0,0,1,2.449,6.578V57.545Z" style="fill:#f7901e"/><path d="M163.719,57.545V33.926h3.457V57.545Z" style="fill:#f7901e"/><path d="M173.941,57.545V54.568L187.094,37H174.66V33.926h16.418v2.928l-13.2,17.617h13.2v3.074Z" style="fill:#f7901e"/><path d="M198.93,46.647c0,5.184,2.449,8.16,6.961,8.16a7.758,7.758,0,0,0,6.191-2.687l2.352,2.064a10.816,10.816,0,0,1-8.641,3.648c-6.238,0-10.32-3.744-10.32-12.1,0-7.633,3.7-12.1,9.7-12.1,6.1,0,9.7,4.416,9.7,11.424v1.584Zm11.762-6.527a6.067,6.067,0,0,0-11.043,0,9.912,9.912,0,0,0-.719,3.935h12.48A9.98,9.98,0,0,0,210.691,40.119Z" style="fill:#f7901e"/><rect x="1.902" width="235.902" height="91.758" style="fill:none"/></svg>