<svg xmlns="http://www.w3.org/2000/svg" viewBox="0 0 822.269 454"><title>logo-IMDb</title><path d="M739.009,45.894H83.244a42.351,42.351,0,0,0-42.3,42.313v277.6a42.344,42.344,0,0,0,42.3,42.3H739.009a42.358,42.358,0,0,0,42.312-42.3V88.206a42.364,42.364,0,0,0-42.312-42.312Z" style="fill:#e6b91e"/><rect x="147.548" y="122.605" width="54.789" height="211.258" style="fill:#010101"/><path d="M319.275,122.6l-12.7,98.719-7.789-53.656c-2.352-17.2-4.5-32.258-6.648-45.062H221.069V333.863h48.023l.211-139.469,20.172,139.469h34.2l19.25-142.539.1,142.539h47.914V122.6Z" style="fill:#010101"/><path d="M476.15,333.863q19.664,0,29.5-2.148a37.847,37.847,0,0,0,16.375-7.578,28.431,28.431,0,0,0,9.32-14.953c1.844-6.344,2.867-19.039,2.867-37.984V197.058c0-19.969-.82-33.383-1.945-40.242a37.72,37.72,0,0,0-9.219-18.531c-4.812-5.539-11.977-9.531-21.3-11.977s-24.68-3.7-51.2-3.7H409.689V333.863Zm.516-173.156a8.677,8.677,0,0,1,4.2,5.938c.609,2.664.922,8.8.922,18.328v81.813c0,14.141-.922,22.742-2.774,25.922-1.836,3.172-6.648,4.7-14.539,4.7V158.769c5.941,0,10.034.609,12.194,1.937Z" style="fill:#010101"/><path d="M552.845,122.6V333.863h49.367l3.477-13.414a45.63,45.63,0,0,0,14.742,12.188c5.437,2.656,13.414,3.992,19.656,3.992,8.609,0,16.18-2.25,22.43-6.859,6.352-4.5,10.352-9.93,11.992-16.086,1.742-6.234,2.562-15.656,2.562-28.258V226.144c0-12.8-.211-21.1-.82-24.984a28.736,28.736,0,0,0-5.023-11.992,27.493,27.493,0,0,0-12.187-9.523,48.97,48.97,0,0,0-18.953-3.375c-6.242,0-14.328,1.234-19.758,3.8a44.279,44.279,0,0,0-14.641,11.258V122.6Zm71.383,160.062c0,10.141-.516,16.688-1.539,19.352S617.259,306,613.877,306c-3.266,0-5.43-1.219-6.547-3.875-1.023-2.562-1.641-8.5-1.641-17.82V228.5c0-9.633.508-15.57,1.438-18.031,1.023-2.352,3.172-3.578,6.344-3.578,3.375,0,7.875,1.438,9.016,4.1,1.125,2.758,1.742,8.6,1.742,17.508Z" style="fill:#010101"/></svg>