<svg xmlns="http://www.w3.org/2000/svg" viewBox="0 0 965.41 449.14"><title>logo-opendoor</title><path d="M602.2,357.57l-34.48-45.74a14.62,14.62,0,0,0-11.69-5.46H386.24a14.62,14.62,0,0,0-11.69,5.46l-34.47,45.73a8.07,8.07,0,0,0-1.67,4.87v7a4.21,4.21,0,0,0,4.21,4.21h257a4.21,4.21,0,0,0,4.21-4.21h0v-7A8,8,0,0,0,602.2,357.57Z" style="fill:#1c85e8"/><path d="M69.92,151c0-47.1,32.42-65.73,61.25-65.73,30.8,0,59.82,18.45,59.82,62.86,0,47.46-32.42,65.55-61.25,65.55C98.94,213.68,69.92,194,69.92,151Zm87,1.07c0-41.91-7.16-59.28-26.86-59.28-17.37,0-26.15,12.18-26.15,54.45,0,41.73,6.81,58.92,26.86,58.92,17.78,0,26.19-12,26.19-54.09Z" style="fill:#1c85e8"/><path d="M308.56,164.61c0-31.16,23.1-48.54,46.74-48.54,24.43,0,39.76,12.07,40.63,43.64a1.11,1.11,0,0,1-1.09,1.13H337.98a1.11,1.11,0,0,0-1.1,1.12v.01c.8,28.45,11.85,36.3,30.06,36.3a53.15,53.15,0,0,0,22-4.73,1.08,1.08,0,0,1,1.27.29l2.38,2.8a1.09,1.09,0,0,1,0,1.45,52.61,52.61,0,0,1-37.31,15.59C324.14,213.68,308.56,195.06,308.56,164.61ZM336.85,154l30.63-1.61c0-21.67-2.87-29.55-13.61-29.55C344.73,122.88,337.57,131.48,336.85,154Z" style="fill:#1c85e8"/><path d="M610.19,165.15c0-34.39,24.36-49.07,48.54-49.07,26,0,48.71,15.58,48.71,48.18,0,34.39-24,49.43-48.71,49.43C632.76,213.68,610.19,197.92,610.19,165.15Zm67.16.9c0-36.18-7-43-19.16-43-11.28,0-17.91,8.24-17.91,39,0,36.71,5.91,44.59,19,44.59,10.73.06,18.07-6.21,18.07-40.64Z" style="fill:#1c85e8"/><path d="M717.01,165.15c0-34.39,24.36-49.07,48.54-49.07,26,0,48.71,15.58,48.71,48.18,0,34.39-24,49.43-48.71,49.43C739.58,213.68,717.01,197.92,717.01,165.15Zm67.16.9c0-36.18-7-43-19.16-43-11.28,0-17.91,8.24-17.91,39,0,36.71,5.91,44.59,19,44.59,10.73.06,18.08-6.21,18.08-40.64Z" style="fill:#1c85e8"/><path d="M469.55,116.08c-13.07,0-24.89,5.91-34.39,12.72h-.75l.35-11.29a1.42,1.42,0,0,0-1.58-1.46l-25.06,2.84a1.46,1.46,0,0,0-1.29,1.45v89.78a1.42,1.42,0,0,0,1.42,1.42h25.64a1.42,1.42,0,0,0,1.42-1.42h0V135.06a77.47,77.47,0,0,1,16.66-2.33c8.42,0,12.36,3.4,12.36,14.33v63.05a1.42,1.42,0,0,0,1.42,1.42h25.82a1.42,1.42,0,0,0,1.42-1.42v-70C493.02,124,484.78,116.08,469.55,116.08Z" style="fill:#1c85e8"/><path d="M598.33,98.52c0-9.26.32-17.76.48-21.25a1.68,1.68,0,0,0-1.84-1.75l-25.79,2.93a1.46,1.46,0,0,0-1.33,1.45V105c0,6.45.36,13.07.36,13.07a51.88,51.88,0,0,0-13.61-2c-27.94,0-51.94,14.87-51.94,52.12,0,32.6,17.37,45.49,35.1,45.49,12.54,0,22.57-5,30.27-11.64h.72l-.36,9.89a1.69,1.69,0,0,0,1.92,1.74l24.57-2.74a1.69,1.69,0,0,0,1.45-1.67Zm-28.48,97.07c-2.87,1.07-7.7,3.94-15,3.94-13.61,0-20.78-9.13-20.78-37.25,0-29.55,9-39,21.85-39,6.63,0,10.92,3.76,14,7.52Z" style="fill:#1c85e8"/><path d="M880.82,116.08c-10.39,0-20.6,7.88-26.15,13.79h-.72l.35-12a1.69,1.69,0,0,0-1.87-1.73l-24.76,2.78a1.46,1.46,0,0,0-1.3,1.45v89.52a1.69,1.69,0,0,0,1.69,1.69h25.1a1.69,1.69,0,0,0,1.69-1.69h0V137.21c2.51-2.33,6.63-4.66,9.85-4.66,1.61,0,2.69.36,3.76,2.33,3.4,5.55,6.1,8.76,13.79,8.76,7,0,13.23-5.54,13.23-14.13C895.49,120.73,889.41,116.08,880.82,116.08Z" style="fill:#1c85e8"/><path d="M262.93,116.08c-12.54,0-22.57,5.91-30.09,12.36h-.9l.35-10.72a1.6,1.6,0,0,0-1.78-1.64l-24.85,2.81a1.46,1.46,0,0,0-1.29,1.45V250a1.46,1.46,0,0,0,1.62,1.45l25.56-2.89a1.46,1.46,0,0,0,1.29-1.45V222.82c0-6.27-.18-10.92-.18-10.92a60.459,60.459,0,0,0,13.61,1.79c29.91,0,51.76-16.3,51.76-53.55C298.03,127.36,279.94,116.08,262.93,116.08Zm-15.94,90.44a18.3,18.3,0,0,1-14.15-6.45V134.88c2.87-1.07,7.34-3.22,14.51-3.22,13.61,0,21.31,9,21.31,34.57,0,32.77-7.52,40.29-21.67,40.29Z" style="fill:#1c85e8"/></svg>