<svg xmlns="http://www.w3.org/2000/svg" viewBox="0 0 5283.391 1436.275"><title>logo-zillow</title><rect x="183.882" y="181.894" width="1055.408" height="1055.408" style="fill:#fff"/><path d="M78.628,76.64V1342.556H1344.544V76.64ZM767.833,319.318c30.43,14.857,143.066,91.437,183.16,119.7-128.356,3.028-378.868,58.554-483.139,93.311C553.521,467.866,712.6,344.991,767.833,319.318ZM328.246,669.344c68.362-31.152,259.743-89.272,443.048-132.106,0,0-352.332,325.219-450.258,426.029l80.907-219.36c-62.881,9.231-90.569,12.836-176.527,31.152ZM946.089,967.017c-308.056,18.46-643.08,129.944-678.414,145.52l41.1-115.667c104.418-48.312,364.3-143.788,683.9-166.574C986.472,853.948,952.725,941.058,946.089,967.017Zm109.9-311.375a688.363,688.363,0,0,0-29.42,75.14c-123.022,7.355-316.709,48.026-411.319,82.206,48.745-44.851,359.687-357.234,359.687-357.234C1095.5,538.1,1220.543,639.2,1220.543,639.2Z" style="fill:#0074e4;fill-rule:evenodd"/><path d="M2253.332,1182.244l46.687-147.808H1996.551c-36.3,0-76.409.312-76.409.312s14.153-26.22,33.648-58.631l342.822-599.871V245.273H1757.165l-40.225,150.42h277.512c54.469,0,74.214,1.6,74.214,1.6s-13.249,32.115-37.915,73.593L1690.533,1055.2v127.045Z" style="fill:#0074e4;fill-rule:evenodd"/><path d="M2505.866,522.567A107.322,107.322,0,0,0,2613.44,414.931c0-59.658-46.656-107.652-105.071-107.652-59.594,0-108.832,47.994-108.832,107.652,0,59.642,47.932,107.636,106.329,107.636Z" style="fill:#0074e4;fill-rule:evenodd"/><polygon points="2418.968 1183.613 2592.755 1183.613 2592.39 560.936 2419.264 599.739 2418.968 1183.613 2418.968 1183.613" style="fill:#0074e4;fill-rule:evenodd"/><polygon points="2763.618 1181.823 2762.358 262.893 2940.017 222.707 2941.277 1181.823 2763.618 1181.823 2763.618 1181.823" style="fill:#0074e4;fill-rule:evenodd"/><polygon points="3108.882 1181.823 3107.622 262.893 3285.353 222.707 3286.549 1181.823 3108.882 1181.823 3108.882 1181.823" style="fill:#0074e4;fill-rule:evenodd"/><path d="M4776.8,1182.244,4966.08,518.361H4787.162l-50.537,237.3c-18.179,84.277-32.425,188.008-36.344,216.563,0,0-19.386-111.525-49.238-234.7L4597.87,518.361H4434.464l-62.225,223.027C4341.121,854.2,4324.2,972.229,4324.2,972.229s-20.685-129.706-37.5-206.206l-52.956-247.74H4056.393l184.837,663.961h162.129l33.672-136.129c15.551-62.192,44.151-176.328,57.075-233.452,10.373-47.916,11.633-57,15.569-85.519,3.918,25.924,5.24,34.976,10.419,66.1,7.7,44.1,23.312,107.665,37.558,160.855l59.658,228.149Z" style="fill:#0074e4;fill-rule:evenodd"/><path d="M3941.851,605.261c-57.044-67.469-130.948-99.879-225.645-99.879-178.927,0-298.226,138.76-298.226,347.562,0,208.755,117.993,343.544,298.226,343.544,102.442,0,168.6-34.93,219.144-92,57.1-64.836,83.027-142.645,83.027-256.765C4018.377,740.1,3995.057,667.517,3941.851,605.261Zm-220.458,465.552c-33.685,0-72.605-18.2-88.157-54.495-14.244-33.732-22.052-90.807-22.052-167.294,0-66.159,6.553-112.83,18.181-147.838,14.244-41.462,47.922-67.419,89.5-67.419,31.118,0,58.311,12.971,75.177,34.994,23.343,29.842,34.984,88.18,34.984,177.7C3829.029,1003.38,3796.6,1070.812,3721.393,1070.812Z" style="fill:#0074e4;fill-rule:evenodd"/><path d="M5109.042,377.576V407.66h8.224c8.217,0,12.462-1.135,15.275-4.089,2.7-2.473,4.341-6.625,4.341-11.406,0-9.564-5.247-14.589-19.206-14.589Zm30.549,82.038-8.209-14.794c-6.586-11.612-10.934-18.008-16.133-23.239a8.5,8.5,0,0,0-6.207-2.961v41h-15.456V364.845H5122.5c21.182,0,30.738,12.321,30.738,27.123,0,14.558-9.288,25.965-23.507,25.965,3.451,1.82,9.6,10.91,14.645,18.9l13.9,22.782Zm-18.883-118.007c-37.671,0-67.441,30.974-67.441,70.86,0,39.648,29.77,71.064,67.441,71.064,37.348,0,67.6-31.416,67.6-71.064,0-39.885-30.25-70.86-67.6-70.86Zm0,155.63c-46.053,0-83.889-37.167-83.889-84.771,0-47.621,37.836-84.788,83.889-84.788,45.792,0,84.054,37.166,84.054,84.788,0,47.6-38.262,84.771-84.054,84.771Z" style="fill:#0074e4"/></svg>