<?xml version="1.0" encoding="utf-8"?>
<!-- Generator: Adobe Illustrator 17.0.0, SVG Export Plug-In . SVG Version: 6.00 Build 0)  -->
<!DOCTYPE svg PUBLIC "-//W3C//DTD SVG 1.1//EN" "http://www.w3.org/Graphics/SVG/1.1/DTD/svg11.dtd">
<svg version="1.1" id="logo.fw-Page_x25_202" xmlns="http://www.w3.org/2000/svg" xmlns:xlink="http://www.w3.org/1999/xlink"
	 x="0px" y="0px" width="521px" height="146px" viewBox="-11.5 -6.5 521 146" enable-background="new -11.5 -6.5 521 146"
	 xml:space="preserve">
<g id="Layer_x25_201">
	<g>
		<g>
			<path opacity="0.4" fill="#4DB600" enable-background="new    " d="M58.09,48.625l-18.4,2.095l-21.33,21.177
				c-3.777,3.751-8.248,2.258-7.743,3.109l20.444-1.771l21.943-21.789C54.457,50.003,56.224,49.064,58.09,48.625z M60.615,48.335"/>
			<g>
				<g>
					<path fill="#4DB600" d="M48.629,11.605L3.131,56.777c-4.188,4.158-4.174,10.912,0.033,15.089
						c4.205,4.175,11.007,4.188,15.195,0.03l45.497-45.172c4.189-4.159,4.173-10.911-0.032-15.086
						C59.618,7.461,52.818,7.445,48.629,11.605z"/>
				</g>
				<g>
					<path fill="#4DB600" d="M53.003,51.446L7.512,96.613c-4.188,4.157-4.172,10.914,0.034,15.092
						c4.207,4.176,11.006,4.186,15.194,0.027l45.492-45.167c4.187-4.158,4.181-10.911-0.026-15.088
						C63.999,47.301,57.191,47.289,53.003,51.446z"/>
				</g>
			</g>
		</g>
		<g>
			<path fill="#333333" d="M97.853,95.191c4.748,2.63,11.498,4.471,19.139,4.471c16.419,0,25.648-7.889,25.648-19.955
				c0-10.15-6.061-16.072-17.872-20.442c-9.243-3.524-13.351-6.062-13.351-11.701c0-5.075,4.108-9.301,11.737-9.301
				c6.602,0,11.497,2.393,14.114,4.084l2.893-8.757c-3.582-2.269-9.524-4.006-16.713-4.006c-14.923,0-23.739,8.544-23.739,19.529
				c0,8.177,5.648,14.803,18.164,19.313c9.39,3.384,13.059,6.485,13.059,12.406c0,5.78-4.403,10.15-13.646,10.15
				c-6.419,0-12.756-2.537-16.475-4.793L97.853,95.191L97.853,95.191z"/>
			<path fill="#333333" d="M167.464,98.504v-67.76h-11.708v67.76H167.464L167.464,98.504z M161.677,3.022
				c-4.445,0-7.408,3.346-7.408,7.36c0,4.014,2.829,7.226,7.139,7.226c4.714,0,7.544-3.211,7.544-7.226
				C168.951,6.234,165.987,3.022,161.677,3.022L161.677,3.022z"/>
			<path fill="#333333" d="M188.013,18.301v12.761h-10.704v8.678h10.704v37.291c0,9.045,1.361,15.023,4.629,18.232
				c2.859,2.734,7.365,4.398,13.217,4.398c4.853,0,8.706-0.713,11.132-1.426l-0.571-8.118c-1.855,0.577-3.854,0.866-7.279,0.866
				c-6.994,0-9.42-4.908-9.42-13.569V39.74h17.983v-8.678h-17.983V14.615L188.013,18.301L188.013,18.301z"/>
			<path fill="#333333" d="M282.236,66.008c0.276-1.377,0.414-3.167,0.414-5.647c0-12.162-5.648-31.059-28.361-31.059
				c-20.414,0-32.413,15.627-32.413,35.604c0,21.619,12.433,34.756,34.006,34.756c11.148,0,18.777-2.138,23.048-3.898l-2.204-8.496
				c-4.408,2.082-9.984,3.717-19.107,3.717c-12.886,0-23.745-7.284-24.035-24.977H282.236L282.236,66.008z M233.73,57.331
				c1.014-8.314,6.516-19.352,19.546-19.352c14.334,0,17.803,11.855,17.665,19.352H233.73L233.73,57.331z"/>
			<path fill="#333333" d="M294.278,126.568h11.708V89.977h0.296c4.285,6.164,12.56,9.686,22.016,9.686
				c16.845,0,31.214-11.127,31.214-36.189c0-21.03-11.577-33.888-28.997-33.888c-11.673,0-20.243,4.215-25.335,11.993h-0.27
				l-0.674-10.834h-10.529c0.285,6.507,0.571,13.577,0.571,22.344V126.568L294.278,126.568z M305.986,59.451
				c0-1.555,0.443-3.394,0.887-4.949c2.364-10.187,10.787-16.239,19.652-16.239c13.741,0,21.277,11.958,21.277,25.786
				c0,15.988-7.98,26.936-21.721,26.936c-9.309,0-17.141-6.05-19.504-14.836c-0.443-1.584-0.592-3.312-0.592-5.185V59.451
				L305.986,59.451z"/>
			<path fill="#333333" d="M428.526,66.008c0.275-1.377,0.413-3.167,0.413-5.647c0-12.162-5.647-31.059-28.36-31.059
				c-20.415,0-32.413,15.627-32.413,35.604c0,21.619,12.433,34.756,34.006,34.756c11.148,0,18.778-2.138,23.049-3.898l-2.204-8.496
				c-4.408,2.082-9.985,3.717-19.107,3.717c-12.886,0-23.745-7.284-24.034-24.977H428.526L428.526,66.008z M380.02,57.331
				c1.014-8.314,6.516-19.352,19.546-19.352c14.334,0,17.803,11.855,17.665,19.352H380.02L380.02,57.331z"/>
			<path fill="#333333" d="M437.713,98.504h11.709V56.962c0-2.142,0.291-4.283,0.874-5.854c2.331-6.995,8.888-12.845,17.192-12.845
				c12.092,0,16.315,9.276,16.315,20.412v39.829h11.709V57.39c0-22.984-14.038-27.805-23.8-27.805
				c-11.655,0-19.815,5.424-23.223,11.245h-0.266l-0.665-10.086h-10.417c0.428,5.597,0.57,11.197,0.57,18.338V98.504L437.713,98.504
				z"/>
		</g>
	</g>
</g>
</svg>
