<svg xmlns="http://www.w3.org/2000/svg" viewBox="0 0 792 173.664"><title>logo-sendgrid</title><g style="isolation:isolate"><polygon points="155.515 22.269 70.648 22.269 70.648 64.703 28.214 64.703 28.214 149.57 113.081 149.57 113.081 107.136 155.515 107.136 155.515 22.269" style="fill:#fff"/><polygon points="28.214 64.703 28.214 107.136 70.648 107.136 70.648 149.57 113.081 149.57 113.081 64.703 28.214 64.703" style="fill:#263746;opacity:0.35000000000000003"/><path d="M179.334,131.986l18.457-14.534c5.232,9.011,13.515,14.242,22.962,14.242,10.319,0,15.841-6.685,15.841-13.952,0-8.719-10.609-11.481-21.945-14.968-14.242-4.36-30.083-9.883-30.083-30.228,0-17,14.824-30.519,35.315-30.519,17.294,0,27.176,6.54,35.751,15.405L238.918,70.076c-4.36-6.54-10.609-10.028-18.893-10.028-9.446,0-14.532,5.087-14.532,11.772,0,8.138,10.173,10.9,21.508,14.678,14.388,4.651,30.664,11.045,30.664,31.391,0,16.858-13.37,33.135-36.768,33.135C201.714,151.024,188.925,142.885,179.334,131.986ZM341.9,76.906h19.764v8.138a25.018,25.018,0,0,1,20.055-9.592c17.149,0,27.467,11.045,27.467,29.792V149.57h-20.2V107.861c0-9.737-4.505-15.405-13.37-15.405-7.557,0-13.806,5.232-13.806,17.44V149.57H341.9Zm71.958,36.332c0-25.723,18.893-37.786,35.315-37.786,9.446,0,16.858,3.488,21.654,8.574V43.481h19.91V149.57h-19.91v-8.139c-4.8,5.668-12.5,9.592-21.945,9.592C433.474,151.024,413.855,138.816,413.855,113.238Zm57.55-.146c0-10.754-7.848-19.474-18.6-19.474a19.547,19.547,0,0,0,0,39.093C463.557,132.712,471.4,123.847,471.4,113.092Zm24-16.567c0-30.228,22.816-54.5,54.207-54.5,15.7,0,28.905,5.653,38.465,14.663A52.819,52.819,0,0,1,597.861,69.2L580.13,79.958c-6.54-12.062-16.567-18.311-30.374-18.311-19.329,0-34.3,15.841-34.3,34.879,0,19.474,14.678,34.879,35.024,34.879,15.4,0,26.3-8.72,30.083-22.235h-33.28V89.84h55.079v8.138c0,28.485-20.346,53.045-51.882,53.045C517.349,151.024,495.4,125.882,495.4,96.525ZM607.412,76.906h19.764V88.823c3.633-7.557,10.173-11.917,20.055-11.917h7.993l-7.219,19.329h-5.425c-10.609,0-15.259,5.523-15.259,19.038v34.3h-19.91Zm53.038,0h19.91V149.57H660.45V96.236h-7.226Zm9.955-11.06a11.909,11.909,0,1,0-11.91-11.91A11.909,11.909,0,0,0,670.4,65.846Zm14.626,47.392c0-25.723,18.893-37.786,35.315-37.786,9.446,0,16.858,3.488,21.654,8.574V43.481h19.91V149.57H742v-8.139c-4.8,5.668-12.5,9.592-21.945,9.592C704.65,151.024,685.03,138.816,685.03,113.238Zm57.55-.146c0-10.754-7.847-19.474-18.6-19.474a19.547,19.547,0,0,0,0,39.093C734.733,132.712,742.58,123.847,742.58,113.092Zm-405.339,0c0-20.927-15.259-37.64-37.494-37.64a37.71,37.71,0,0,0-37.785,37.786c0,20.927,15.7,37.785,38.366,37.785,15.7,0,26.995-7.574,33.349-18.431l-15.792-9.417a19.223,19.223,0,0,1-17.411,10.409c-10.463,0-17-5.232-19.329-13.225h56.1Zm-55.225-8.72a19,19,0,0,1,17.876-11.481c8.429,0,14.678,3.924,17.294,11.481Z" style="fill:#263746"/><rect x="28.214" y="107.136" width="42.434" height="42.434" style="fill:#263746"/><polygon points="113.081 64.703 113.081 22.269 70.648 22.269 70.648 64.703 70.648 107.136 113.081 107.136 155.515 107.136 155.515 64.703 113.081 64.703" style="fill:#263746;opacity:0.75;mix-blend-mode:multiply"/><rect x="113.081" y="22.269" width="42.434" height="42.434" style="fill:#263746"/></g></svg>