<svg xmlns="http://www.w3.org/2000/svg" viewBox="0 0 1490 460"><title>SeattleJSConference</title><path d="M175,70V30h20V70ZM15,150v40H35V150Zm40-20H35v20H55ZM95,10V30H75V70H95V170H75v20H35v20h80V190h20V150h20V90H135V70H115V30h60V10ZM350,50V10H230V30h20V70H230v80H210v40H190v20H320V170H300v20H250V170h20V110h50V90H290V30h40V50ZM530,10H510V50h20V30h40v80H550v80H530v20h80V190H590V110h20V30h40V50h20V10H530Zm180,0H690V50h20V30h40V190H730v20h80V190H790V30h40V50h20V10H710ZM490,190h20v20H440V190h10V170H410v40H350V190h20V130h20V110h20V70h20V10h40V90h20ZM450,90H430v40H410v20h40ZM990,190H950V110H930V30h20V10H870V30h20v80h20v80H890v20h120V170H990Zm140,0h-40V110h20V90h-40V30h40V50h20V10H1010V30h20v80h20v80h-20v20h120V170h-20Zm40,20h20V190h-20Zm120-100V70h-20V10h-80V30h40V70h20v60h20v60h-20V170h-40v20h20v20h60V190h20V130h-20Zm160,20V110h-20V90h-40V70h-20V50h-20V30h40V50h40V30h-20V10h-80V30h-20V70h20V90h20v20h40v20h20v20h20v40h-40V170h-40v20h20v20h80V190h20V130ZM65,310H45V300H65Zm10,20V310H65v20ZM45,310H35v10H45ZM35,320H25v10H35ZM15,330v50H25V330Zm10,60H75V380H25Zm50-10h40V370H75Zm40-10h30V360H115Zm30-10h10V350H145Zm20-30v10H155v10h10v30h10V330Zm10,60h40V380H175Zm40-10h10V370H215Zm-30-60H175v10h10Zm10-10H185v10h10Zm10,30h10V310h10V300H195v10h10Zm30-30H225v30H215v10h10v20h10V350h60V340H235Zm60,30h20V330H295Zm40-40H325v20H315v10h10v60h10V330h10V320H335Zm10,20h10V310H345Zm10-20v10h20V300Zm20,10v70h10V310Zm10,80h50V380H385Zm50-10h40V370H435Zm40-10h20V360H475Zm40-20h10V340H515V280H505v70H495v10h10v70h10V390h10V380H515Zm20-10V280H525v60Zm-10-80H515v20h10ZM515,440h10V430H515Zm20-10V390H525v40Zm-10-50h50V370H525Zm50-10h40V360H575Zm40-10h10V350H615Zm40-40H645v10h10Zm10-10H655v10h10Zm20-10H665v10h20Zm10,40V310H685v30Zm-10,10V340H645V330H635v10H625v10h10v30h10V350Zm-40,40h50V380H645Zm50-10h60V370H695Zm60-10h20V360H755Zm20-10h10V340H775Zm70-50H795V300H785v40h10V320h40v60h10V310Zm0,80h60V380H845Zm60-10h10V370H905Zm10-10h10V360H915Zm10-10h10V350H925Zm40-40H955v10h10Zm10-10H965v10h10Zm20-10H975v10h20Zm10,40V310H995v30Zm-10,10V340H955V330H945v10H935v10h10v30h10V350Zm-40,40h50V380H955Zm50-10h40V370h-40Zm40-10h20V360h-20Zm20-10h10V350h-10Zm10-10h10V340h-10Zm30-50h-10v30h-10v10h10v50h10V330h10V320h-10Zm10,20h10V310h-10Zm10-20v10h20V300Zm20,10v70h10V310Zm10,80h30V380h-30Zm30-10h30V370h-30Zm30-10h20V360h-20Zm20-10h10V350h-10Zm20-30v10h-10v10h10v30h10V330Zm10,60h50V380h-50Zm10-70h-10v10h10Zm10-10h-10v10h10Zm20-10h-20v10h20Zm10,30V310h-10v20Zm0,50h50V370h-50Zm50-10h10V360h-10Zm10-10h10V350h-10Zm40-40h-10v10h10Zm10-10h-10v10h10Zm20-10h-20v10h20Zm10,40V310h-10v30Zm-10,10V340h-40V330h-10v10h-10v10h10v30h10V350Zm-40,40h50V380h-50Zm50-10h10V370h-10Zm10-10h10V360h-10Zm10-20v10h10V350Z" style="fill:#00002c"/></svg>